<svg xmlns="http://www.w3.org/2000/svg" width="24" height="24" viewBox="0 0 24 24" fill="none">
  <path d="M3.44962 7.57033C3.32881 7.32201 3.02958 7.21864 2.78127 7.33944C2.53295 7.46025 2.42958 7.75948 2.55038 8.0078L3.44962 7.57033ZM21.4496 8.0078C21.5704 7.75948 21.4671 7.46025 21.2187 7.33944C20.9704 7.21864 20.6712 7.32201 20.5504 7.57033L21.4496 8.0078ZM4.07125 14.0318C3.92918 14.2686 4.00596 14.5757 4.24275 14.7178C4.47954 14.8599 4.78667 14.7831 4.92875 14.5463L4.07125 14.0318ZM9.00503 16.7184C8.96597 16.9917 9.15592 17.245 9.42929 17.284C9.70266 17.3231 9.95592 17.1331 9.99497 16.8598L9.00503 16.7184ZM14.5192 16.9264C14.5951 17.1919 14.8718 17.3457 15.1374 17.2698C15.4029 17.194 15.5566 16.9172 15.4808 16.6517L14.5192 16.9264ZM19.6096 14.6014C19.7821 14.817 20.0967 14.852 20.3123 14.6795C20.528 14.507 20.5629 14.1923 20.3904 13.9767L19.6096 14.6014ZM5.57125 11.5318L4.07125 14.0318L4.92875 14.5463L6.42875 12.0463L5.57125 11.5318ZM9.50503 13.2184L9.00503 16.7184L9.99497 16.8598L10.495 13.3598L9.50503 13.2184ZM13.5192 13.4264L14.5192 16.9264L15.4808 16.6517L14.4808 13.1517L13.5192 13.4264ZM17.6096 12.1014L19.6096 14.6014L20.3904 13.9767L18.3904 11.4767L17.6096 12.1014ZM2.55038 8.0078C6.3848 15.8897 17.6152 15.8897 21.4496 8.0078L20.5504 7.57033C17.0809 14.7021 6.91915 14.7021 3.44962 7.57033L2.55038 8.0078Z" fill="#4D4D4F"/>
</svg>